<svg xmlns="http://w3.org" viewBox="0 0 900 900" width="100%" height="100%">
  <!-- LAYER 1: AUTOMATED MATRIX BOUNDARY AND PANEL WALLS (RED LINE) -->
  <g id="Cutting_Boundary" stroke="#FF0000" stroke-width="2" fill="none">
    <!-- Master 900x900 Grid Boundary for High-Yield Fabric Lasers -->
    <rect x="50" y="50" width="800" height="800" rx="6" />
    <!-- Vertical Panel Dividers -->
    <path d="M 316,50 L 316,850 M 584,50 L 584,850" />
    <!-- Horizontal Panel Dividers -->
    <path d="M 50,316 L 850,316 M 50,584 L 850,584" />
  </g>

  <!-- LAYER 2: SEAM ALLOWANCE AND REINFORCED ASSEMBLY MARKERS (BLUE DASHED LINE) -->
  <g id="Seam_Allowance" stroke="#0000FF" stroke-width="1.5" stroke-dasharray="6,4" fill="none">
    <!-- 1-Inch Internal Graded Margin for Heavy Canvas Twill Stitching -->
    <rect x="75" y="75" width="750" height="750" />
    <path d="M 331,75 L 331,825 M 569,75 L 565,825" />
    <path d="M 75,331 L 825,331 M 75,569 L 825,569" />
  </g>

  <!-- LAYER 3: SACRED ICONOGRAPHY ALIGNMENTS & SIGNATURE OF GOD (METALLIC GOLD) -->
  <g id="Gold_Chrismon_Branding" fill="none" stroke="#D4AF37" stroke-width="4" stroke-linecap="round" stroke-linejoin="round">
    
    <!-- PANEL 1 (Top Left: Cooks) - Harvest Wheat Geometric Target -->
    <path d="M 120,183 L 246,183 M 183,120 L 183,246" stroke-dasharray="4,4" />
    
    <!-- PANEL 2 (Top Middle: Farmers) - Agriculture Pathology Field Lines -->
    <path d="M 383,120 Q 450,183 517,120 T 517,246" />
    
    <!-- PANEL 3 (Top Right: Doctors) - The Structural Chai (ח) Alignment -->
    <path d="M 680,130 L 680,230 M 720,130 L 720,230 M 680,130 L 720,130" stroke-width="6" />
    
    <!-- PANEL 4 (Middle Left: Morgue / Pathology) - Disposable Containment Shield -->
    <rect x="110" y="390" width="146" height="146" stroke-dasharray="8,4" />
    
    <!-- PANEL 5 (Middle Middle: Police) - Authoritative Seam Cross Row -->
    <path d="M 360,450 L 540,450 M 450,360 L 450,540" stroke-width="5" />
    
    <!-- PANEL 6 (Middle Right: Federal Law Enforcement) - Precision Vertical Twill Lines -->
    <path d="M 650,360 L 650,540 M 690,360 L 690,540 M 730,360 L 730,540 M 770,360 L 770,540" stroke-width="2" />
    
    <!-- PANEL 7 (Bottom Left: Student) - Balanced Foundation Geometric Base -->
    <circle cx="183" cy="717" r="50" />
    
    <!-- PANEL 8 (Bottom Middle: Combat Medic) - The 880ST Steel Toe Cross Shield -->
    <path d="M 410,717 L 490,717 M 450,677 L 450,757" stroke-width="6" />
    
    <!-- PANEL 9 (Bottom Right: SIGNATURE OF GOD) - High-Density Chi-Rho (☧) Monogram from Master File -->
    <g transform="translate(268, 268)" stroke-width="12">
      <!-- Precise, high-end reconstruction of your vector asset vector paths -->
      <path d="M 410,410 L 490,490" />
      <path d="M 490,410 L 410,490" />
      <path d="M 450,510 L 450,370" />
      <path d="M 450,370 C 495,370 495,430 450,430" />
    </g>
  </g>
</svg>
