<svg xmlns="http://w3.org" viewBox="0 0 1000 800" width="100%" height="100%">
  <!-- LAYER 1: AUTOMATED MATERIAL CUTTING BOUNDARY (RED LINE) -->
  <g id="Cutting_Boundary" stroke="#FF0000" stroke-width="2" fill="none">
    <!-- Elongated, Sculpted Women's 880ST Mil-Spec Boot Profile -->
    <path d="M 180,650 L 240,240 C 260,140 310,100 350,100 L 440,100 L 420,220 L 500,380 L 700,550 L 760,650 Z" />
    <!-- Steel-Toe Cap Panel Boundary -->
    <path d="M 600,470 C 630,490 680,530 700,550 L 630,650" />
    <!-- High-Rise Front Eyelet Tracking Path -->
    <path d="M 360,130 L 460,420" stroke="#FF0000" stroke-width="1" stroke-dasharray="4,4" />
  </g>

  <!-- LAYER 2: INTERNAL REINFORCEMENT & STITCH LINES (BLUE DASHED LINE) -->
  <g id="Seam_Allowance" stroke="#0000FF" stroke-width="1.5" stroke-dasharray="6,4" fill="none">
    <path d="M 195,635 L 255,255 C 272,155 315,115 355,115 L 425,115 L 408,215 L 485,370 L 680,538 L 735,635 Z" />
  </g>

  <!-- LAYER 3: CELLULOSE GOLD THREAD EMBROIDERY TARGET (METALLIC GOLD) -->
  <g id="Gold_ChiRho_Logo" fill="none" stroke="#D4AF37" stroke-width="10" stroke-linecap="round" stroke-linejoin="round">
    <!-- Placed on the high lateral collar pull-tab -->
    <path d="M 260,140 L 290,170" />
    <path d="M 290,140 L 260,170" />
    <path d="M 275,180 L 275,130" />
    <path d="M 275,130 C 287,130 287,145 275,145" />
  </g>
</svg>
